<?xml version="1.0" encoding="utf-8"?>
<!-- Generator: Adobe Illustrator 22.1.0, SVG Export Plug-In . SVG Version: 6.00 Build 0)  -->
<svg version="1.1" id="Layer_1" xmlns="http://www.w3.org/2000/svg" xmlns:xlink="http://www.w3.org/1999/xlink" x="0px" y="0px"
	 viewBox="0 0 130 23" style="enable-background:new 0 0 130 23;" xml:space="preserve">
<style type="text/css">
	.st0{opacity:0.9;fill:#FFFFFF;}
	.st1{opacity:0.57;fill:#FFFFFF;}
</style>
<g>
	<g>
		<path class="st0" d="M9.4,6.1C8.7,5,7.9,4.3,6.5,4.3C5,4.3,3.7,5.3,3.7,6.9c0,1.4,1.5,2.1,2.6,2.6l1.1,0.5c2.2,0.9,4,2,4,4.7
			c0,2.9-2.3,5.1-5.2,5.1c-2.7,0-4.7-1.7-5.2-4.3l1.8-0.5C3.1,16.6,4.4,18,6.2,18c1.8,0,3.4-1.4,3.4-3.2c0-1.9-1.5-2.6-3.1-3.3
			l-1-0.4c-1.9-0.9-3.6-1.9-3.6-4.2c0-2.6,2.2-4.2,4.7-4.2c1.9,0,3.4,0.9,4.3,2.6L9.4,6.1z"/>
		<path class="st0" d="M30.6,11.2c0,4.8-3.9,8.6-8.7,8.6c-4.7,0-8.7-3.8-8.7-8.6c0-4.8,3.9-8.6,8.7-8.6C26.7,2.6,30.6,6.4,30.6,11.2
			z M15.1,11.2c0,3.7,3,6.9,6.8,6.9s6.8-3.1,6.8-6.9c0-3.8-3-6.9-6.8-6.9C18.1,4.3,15.1,7.4,15.1,11.2z"/>
		<path class="st0" d="M33.2,2.2l13,13.6V2.9h1.9v17.3l-13-13.5v12.8h-1.9V2.2z"/>
		<path class="st0" d="M51.6,2.2l13,13.6V2.9h1.9v17.3l-13-13.5v12.8h-1.9V2.2z"/>
		<path class="st0" d="M86.4,11.2c0,4.8-3.9,8.6-8.7,8.6c-4.7,0-8.7-3.8-8.7-8.6c0-4.8,3.9-8.6,8.7-8.6C82.5,2.6,86.4,6.4,86.4,11.2
			z M70.9,11.2c0,3.7,3,6.9,6.8,6.9c3.8,0,6.8-3.1,6.8-6.9c0-3.8-3-6.9-6.8-6.9C73.9,4.3,70.9,7.4,70.9,11.2z"/>
		<path class="st1" d="M94.1,15.5l4.7-12.6h2l-6.7,17.6L87.3,2.9h2L94.1,15.5z"/>
		<path class="st1" d="M104.5,19.4h-1.9V2.9h1.9V19.4z"/>
		<path class="st1" d="M127.1,15.7v1.8h-10.9v-1.8H127.1z"/>
		<path class="st1" d="M112.3,19.4h-1.9V4.6h-4V2.9h9.9v1.7h-4.1V19.4z"/>
		<path class="st1" d="M124.3,13l-2.8-6.6l-2.8,6.6l-0.7,1.7l-2,4.7h-2l7.7-17.4l7.5,17.4h-2.1l-2-4.7L124.3,13z"/>
	</g>
</g>
</svg>
