<?xml version="1.0" encoding="utf-8"?>
<!-- Generator: Adobe Illustrator 22.1.0, SVG Export Plug-In . SVG Version: 6.00 Build 0)  -->
<svg version="1.1" id="Layer_1" xmlns="http://www.w3.org/2000/svg" xmlns:xlink="http://www.w3.org/1999/xlink" x="0px" y="0px"
	 viewBox="0 0 158 23" style="enable-background:new 0 0 158 23;" xml:space="preserve">
<style type="text/css">
	.st0{opacity:0.9;fill:#FFFFFF;}
	.st1{opacity:0.57;fill:#FFFFFF;}
	.st2{opacity:0.4;fill:#FFFFFF;}
	.st3{opacity:0.6;fill:#FFFFFF;}
	.st4{opacity:0.8;fill:#FFFFFF;}
</style>
<g>
	<g>
		<path class="st0" d="M37.4,6.1c-0.7-1.1-1.5-1.8-2.9-1.8c-1.5,0-2.8,1.1-2.8,2.6c0,1.4,1.5,2.1,2.6,2.6l1.1,0.5c2.2,0.9,4,2,4,4.7
			c0,2.9-2.3,5.1-5.2,5.1c-2.7,0-4.7-1.7-5.2-4.3l1.8-0.5c0.2,1.7,1.5,3.1,3.3,3.1c1.8,0,3.4-1.4,3.4-3.2c0-1.9-1.5-2.6-3.1-3.3
			l-1-0.4c-1.9-0.9-3.6-1.9-3.6-4.2c0-2.6,2.2-4.2,4.7-4.2c1.9,0,3.4,0.9,4.3,2.6L37.4,6.1z"/>
		<path class="st0" d="M58.6,11.2c0,4.8-3.9,8.6-8.7,8.6c-4.7,0-8.7-3.8-8.7-8.6c0-4.8,3.9-8.6,8.7-8.6C54.7,2.6,58.6,6.4,58.6,11.2
			z M43.1,11.2c0,3.7,3,6.9,6.8,6.9s6.8-3.1,6.8-6.9c0-3.8-3-6.9-6.8-6.9C46.1,4.3,43.1,7.4,43.1,11.2z"/>
		<path class="st0" d="M61.2,2.2l13,13.6V2.9h1.9v17.3l-13-13.5v12.8h-1.9V2.2z"/>
		<path class="st0" d="M79.6,2.2l13,13.6V2.9h1.9v17.3l-13-13.5v12.8h-1.9V2.2z"/>
		<path class="st0" d="M114.4,11.2c0,4.8-3.9,8.6-8.7,8.6c-4.7,0-8.7-3.8-8.7-8.6c0-4.8,3.9-8.6,8.7-8.6
			C110.5,2.6,114.4,6.4,114.4,11.2z M98.9,11.2c0,3.7,3,6.9,6.8,6.9c3.8,0,6.8-3.1,6.8-6.9c0-3.8-3-6.9-6.8-6.9
			C101.9,4.3,98.9,7.4,98.9,11.2z"/>
		<path class="st1" d="M122.1,15.5l4.7-12.6h2l-6.7,17.6l-6.7-17.6h2L122.1,15.5z"/>
		<path class="st1" d="M132.5,19.4h-1.9V2.9h1.9V19.4z"/>
		<path class="st1" d="M155.1,15.7v1.8h-10.9v-1.8H155.1z"/>
		<path class="st1" d="M140.3,19.4h-1.9V4.6h-4V2.9h9.9v1.7h-4.1V19.4z"/>
		<path class="st1" d="M152.3,13l-2.8-6.6l-2.8,6.6l-0.7,1.7l-2,4.7h-2l7.7-17.4l7.5,17.4h-2.1l-2-4.7L152.3,13z"/>
	</g>
	<g>
		<rect x="1" y="20.2" class="st2" width="20.2" height="1.8"/>
		<polygon class="st3" points="20.7,21.9 3.2,11.9 4.1,10.3 21.6,20.3 		"/>
		<polygon class="st4" points="20.4,21.6 10.3,4.1 11.9,3.3 22,20.7 		"/>
		<rect x="20.3" y="1" class="st0" width="1.8" height="21"/>
	</g>
</g>
</svg>
